<?xml version="1.0" standalone="no"?>
<!DOCTYPE svg PUBLIC "-//W3C//DTD SVG 1.0//EN" "http://www.w3.org/TR/2001/REC-SVG-20010904/DTD/svg10.dtd">
<svg xmlns="http://www.w3.org/2000/svg" xmlns:xlink="http://www.w3.org/1999/xlink" id="body_1" width="1096" height="400">

<g transform="matrix(0.9133334 0 0 0.913242 0 0)">
    <path transform="matrix(0.1 0 0 0.1 0 0)"  d="M0 2190L0 0L6000 0L12000 0L12000 2190L12000 4380L6000 4380L0 4380L0 2190z" stroke="none" fill="#6CA1D2" fill-rule="nonzero" />
    <path transform="matrix(0.1 0 0 0.1 0 0)"  d="M4120 4119C 3973 4097 3923 4088 3895 4080C 3879 4075 3829 4062 3785 4050C 3741 4039 3689 4023 3670 4015C 3651 4007 3590 3984 3535 3964C 3480 3944 3410 3916 3380 3903C 3350 3889 3306 3869 3284 3860C 3201 3824 3065 3755 3062 3748C 3060 3743 3052 3740 3043 3740C 3035 3740 2979 3715 2919 3684L2919 3684L2810 3628L2748 3672C 2713 3696 2670 3722 2653 3729C 2635 3736 2620 3746 2620 3751C 2620 3756 2612 3760 2602 3760C 2592 3760 2580 3764 2575 3769C 2555 3787 2394 3850 2306 3874C 2065 3940 1831 3925 1532 3824C 1459 3800 1366 3764 1325 3745C 1284 3726 1244 3710 1236 3710C 1228 3710 1219 3706 1215 3701C 1212 3695 1108 3641 983 3579C 859 3517 752 3461 746 3455C 740 3450 699 3427 655 3404C 426 3287 365 3254 355 3245C 349 3240 319 3224 289 3210C 259 3196 233 3183 230 3180C 218 3167 28 3080 13 3080C 2 3080 0 2811 0 1540L0 1540L0 0L6000 0L12000 0L12000 1929L12000 3858L11933 3870C 11760 3901 11408 3899 11185 3866C 11004 3839 10809 3797 10645 3749C 10607 3738 10568 3727 10560 3726C 10552 3724 10538 3720 10530 3717C 10522 3713 10468 3695 10410 3676C 10283 3633 10110 3569 10049 3542C 10025 3531 9980 3512 9950 3500C 9920 3488 9861 3462 9820 3443C 9779 3423 9726 3400 9704 3390L9704 3390L9663 3372L9559 3421C 9408 3493 9366 3514 9360 3521C 9357 3524 9338 3533 9318 3539C 9297 3546 9278 3556 9275 3561C 9271 3566 9260 3570 9249 3570C 9239 3570 9230 3575 9230 3580C 9230 3586 9226 3590 9221 3590C 9209 3590 9067 3656 9057 3667C 9053 3671 9043 3675 9036 3676C 9029 3677 9007 3685 8989 3693C 8956 3708 8860 3748 8790 3776C 8739 3797 8481 3870 8459 3870C 8449 3870 8431 3874 8418 3880C 8381 3895 8118 3920 7991 3920C 7927 3920 7830 3915 7775 3910C 7647 3897 7390 3855 7325 3836C 7298 3828 7235 3811 7185 3799C 7136 3787 7091 3773 7086 3768C 7080 3764 7064 3760 7050 3760C 7036 3760 7020 3756 7014 3752C 7009 3747 6985 3738 6960 3730C 6935 3723 6899 3713 6880 3707C 6861 3702 6832 3691 6815 3685C 6799 3678 6774 3669 6760 3665C 6746 3661 6722 3652 6705 3645C 6689 3638 6630 3615 6575 3595C 6461 3553 6294 3486 6235 3459C 6152 3421 6007 3360 5998 3360C 5993 3360 5982 3366 5975 3373C 5968 3379 5932 3403 5895 3425C 5859 3447 5792 3489 5747 3518C 5702 3547 5627 3594 5580 3623C 5533 3651 5486 3681 5475 3689C 5464 3698 5446 3710 5435 3716C 5424 3722 5370 3753 5315 3785C 5194 3855 4969 3968 4880 4004C 4783 4042 4631 4087 4538 4105C 4443 4124 4201 4132 4120 4119z" stroke="none" fill="#6DC2E6" fill-rule="nonzero" />
    <path transform="matrix(0.1 0 0 0.1 0 0)"  d="M4120 4119C 3973 4097 3923 4088 3895 4080C 3879 4075 3829 4062 3785 4050C 3741 4039 3689 4023 3670 4015C 3651 4007 3590 3984 3535 3964C 3480 3944 3410 3916 3380 3903C 3350 3889 3306 3869 3284 3860C 3201 3824 3065 3755 3062 3748C 3060 3743 3051 3740 3042 3740C 3034 3740 2961 3705 2881 3663C 2801 3621 2677 3556 2605 3520C 2534 3483 2399 3413 2305 3365C 1705 3055 1043 2736 815 2648C 679 2595 492 2542 385 2525C 363 2522 325 2515 300 2510C 248 2499 140 2491 58 2490L58 2490L0 2490L0 1245L0 0L6000 0L12000 0L12000 1929L12000 3858L11933 3870C 11760 3901 11408 3899 11185 3866C 11004 3839 10809 3797 10645 3749C 10607 3738 10568 3727 10560 3726C 10552 3724 10538 3720 10530 3717C 10522 3713 10468 3695 10410 3676C 10283 3633 10110 3569 10049 3542C 10025 3531 9980 3512 9950 3500C 9740 3414 9196 3140 8950 2997C 8675 2836 8561 2782 8375 2726C 8192 2670 8083 2655 7850 2655C 7648 2655 7624 2657 7485 2679C 7365 2699 7015 2802 6975 2830C 6970 2833 6943 2845 6915 2855C 6830 2885 6455 3076 6388 3122C 6374 3132 6358 3140 6353 3140C 6349 3141 6314 3161 6275 3185C 6237 3210 6189 3239 6170 3249C 6141 3265 6037 3331 5980 3370C 5917 3412 5773 3503 5588 3618C 5532 3652 5479 3686 5471 3693C 5462 3699 5446 3710 5435 3716C 5424 3722 5370 3753 5315 3785C 5194 3855 4969 3968 4880 4004C 4783 4042 4631 4087 4538 4105C 4443 4124 4201 4132 4120 4119z" stroke="none" fill="#E294BC" fill-rule="nonzero" />
    <path transform="matrix(0.1 0 0 0.1 0 0)"  d="M11925 3839C 11903 3833 11845 3820 11795 3808C 11701 3786 11472 3713 11455 3700C 11450 3696 11434 3689 11420 3685C 11406 3681 11291 3627 11164 3564C 11037 3501 10930 3450 10927 3450C 10924 3450 10889 3435 10848 3416C 10709 3351 10461 3276 10344 3263C 10257 3253 10090 3253 10025 3262C 9948 3274 9864 3297 9759 3336L9759 3336L9663 3372L9419 3248C 9157 3114 9082 3074 8950 2997C 8675 2836 8561 2782 8375 2726C 8192 2670 8083 2655 7850 2655C 7648 2655 7624 2657 7485 2679C 7365 2699 7015 2802 6975 2830C 6970 2833 6943 2845 6915 2855C 6830 2885 6455 3076 6388 3122C 6374 3132 6358 3140 6353 3140C 6349 3141 6314 3161 6275 3185C 6237 3210 6189 3239 6170 3249C 6151 3260 6104 3289 6066 3314C 6015 3346 5993 3356 5981 3349C 5972 3344 5936 3329 5900 3316C 5844 3295 5766 3264 5695 3234C 5684 3230 5671 3226 5665 3225C 5660 3225 5649 3221 5642 3217C 5598 3189 5197 3059 5081 3034C 5067 3031 5053 3027 5048 3024C 5044 3021 5019 3015 4992 3010C 4966 3006 4911 2995 4870 2987C 4694 2952 4568 2941 4365 2945C 4126 2949 3960 2980 3720 3065C 3571 3117 3251 3294 3135 3388C 3130 3392 3103 3411 3075 3430C 3048 3448 3023 3467 3020 3471C 3017 3475 2970 3511 2915 3553L2915 3553L2815 3628L2640 3538C 2544 3488 2391 3409 2300 3362C 1701 3053 1042 2736 815 2648C 679 2595 492 2542 385 2525C 363 2522 325 2515 300 2510C 248 2499 140 2491 58 2490L58 2490L0 2490L0 1245L0 0L6000 0L12000 0L12000 1925C 12000 3752 11999 3850 11983 3849C 11973 3848 11947 3844 11925 3839z" stroke="none" fill="#E2ECF5" fill-rule="nonzero" />
    <path transform="matrix(0.1 0 0 0.1 0 0)"  d="M11968 3833C 11975 3830 11984 3831 11987 3834C 11991 3837 11985 3840 11974 3839C 11963 3839 11960 3836 11968 3833z" stroke="none" fill="#FEFEFE" fill-rule="nonzero" />
    <path transform="matrix(0.1 0 0 0.1 0 0)"  d="M11294 3608C 11290 3601 11291 3600 11298 3604C 11310 3611 11314 3620 11306 3620C 11303 3620 11298 3615 11294 3608z" stroke="none" fill="#FEFEFE" fill-rule="nonzero" />
    <path transform="matrix(0.1 0 0 0.1 0 0)"  d="M2764 3588C 2760 3581 2761 3580 2768 3584C 2775 3588 2780 3593 2780 3596C 2780 3604 2771 3600 2764 3588z" stroke="none" fill="#FEFEFE" fill-rule="nonzero" />
    <path transform="matrix(0.1 0 0 0.1 0 0)"  d="M2630 3520C 2630 3513 2633 3510 2637 3513C 2640 3517 2640 3523 2637 3527C 2633 3530 2630 3527 2630 3520z" stroke="none" fill="#FEFEFE" fill-rule="nonzero" />
    <path transform="matrix(0.1 0 0 0.1 0 0)"  d="M11035 3480C 11032 3475 11034 3470 11039 3470C 11045 3470 11050 3475 11050 3480C 11050 3486 11048 3490 11046 3490C 11043 3490 11038 3486 11035 3480z" stroke="none" fill="#FEFEFE" fill-rule="nonzero" />
    <path transform="matrix(0.1 0 0 0.1 0 0)"  d="M2503 3443C 2507 3440 2513 3440 2517 3443C 2520 3447 2517 3450 2510 3450C 2503 3450 2500 3447 2503 3443z" stroke="none" fill="#FEFEFE" fill-rule="nonzero" />
    <path transform="matrix(0.1 0 0 0.1 0 0)"  d="M2430 3400C 2430 3395 2435 3390 2440 3390C 2446 3390 2450 3395 2450 3400C 2450 3406 2446 3410 2440 3410C 2435 3410 2430 3406 2430 3400z" stroke="none" fill="#FEFEFE" fill-rule="nonzero" />
    <path transform="matrix(0.1 0 0 0.1 0 0)"  d="M2305 3340C 2302 3335 2304 3330 2309 3330C 2315 3330 2320 3335 2320 3340C 2320 3346 2318 3350 2316 3350C 2313 3350 2308 3346 2305 3340z" stroke="none" fill="#FEFEFE" fill-rule="nonzero" />
    <path transform="matrix(0.1 0 0 0.1 0 0)"  d="M6000 3320C 6000 3313 6003 3310 6007 3313C 6010 3317 6010 3323 6007 3327C 6003 3330 6000 3327 6000 3320z" stroke="none" fill="#FEFEFE" fill-rule="nonzero" />
    <path transform="matrix(0.1 0 0 0.1 0 0)"  d="M9473 3253C 9477 3250 9483 3250 9487 3253C 9490 3257 9487 3260 9480 3260C 9473 3260 9470 3257 9473 3253z" stroke="none" fill="#FEFEFE" fill-rule="nonzero" />
    <path transform="matrix(0.1 0 0 0.1 0 0)"  d="M9220 3143C 9201 3137 9190 3131 9195 3131C 9201 3130 9169 3111 9125 3089C 9081 3066 9033 3039 9018 3029C 9004 3018 8985 3010 8977 3010C 8969 3010 8957 3003 8949 2994C 8942 2985 8911 2965 8881 2950C 8850 2934 8812 2912 8796 2901C 8779 2890 8763 2883 8758 2886C 8754 2889 8750 2887 8750 2882C 8750 2871 8560 2780 8537 2780C 8528 2780 8520 2776 8520 2772C 8520 2765 8427 2731 8395 2726C 8390 2725 8380 2721 8374 2717C 8367 2713 8345 2708 8324 2705C 8302 2703 8274 2696 8260 2691C 8210 2674 8131 2658 8120 2665C 8115 2668 8104 2668 8098 2663C 8081 2653 8061 2652 7837 2650C 7734 2649 7640 2652 7627 2655C 7611 2660 7609 2659 7619 2652C 7630 2644 7617 2631 7561 2596C 7522 2571 7483 2550 7475 2550C 7467 2550 7460 2546 7460 2541C 7460 2531 7217 2380 7201 2380C 7195 2380 7190 2376 7190 2370C 7190 2365 7184 2360 7177 2360C 7169 2360 7150 2349 7134 2335C 7118 2321 7102 2310 7098 2310C 7094 2310 7071 2297 7047 2280C 7022 2264 7000 2250 6997 2250C 6994 2250 6961 2232 6924 2210C 6886 2188 6847 2170 6838 2170C 6828 2170 6820 2166 6820 2162C 6820 2152 6735 2110 6715 2110C 6707 2110 6700 2106 6700 2102C 6700 2097 6681 2085 6658 2076C 6634 2066 6602 2052 6585 2045C 6503 2007 6428 1980 6410 1980C 6398 1980 6382 1974 6374 1966C 6354 1946 6073 1854 6040 1857C 6032 1858 6018 1854 6009 1849C 5982 1835 5797 1800 5675 1787C 5533 1772 5265 1772 5125 1787C 5065 1794 4963 1811 4900 1825C 4837 1839 4778 1852 4770 1853C 4746 1857 4547 1920 4528 1930C 4519 1935 4472 1954 4423 1973C 4348 2003 4150 2096 4085 2132C 4074 2139 4041 2156 4013 2172C 3967 2196 3899 2237 3835 2278C 3824 2284 3805 2295 3792 2300C 3779 2306 3754 2321 3736 2335C 3718 2349 3700 2360 3696 2360C 3689 2360 3630 2400 3620 2411C 3617 2414 3596 2427 3572 2440C 3549 2453 3530 2467 3530 2471C 3530 2475 3520 2482 3508 2486C 3495 2489 3456 2511 3420 2534C 3384 2557 3324 2594 3285 2615C 3247 2636 3211 2660 3207 2667C 3203 2674 3189 2680 3177 2680C 3165 2680 3137 2691 3115 2705C 3093 2718 3069 2730 3062 2730C 3055 2730 3030 2739 3007 2749C 2983 2760 2951 2772 2935 2776C 2918 2780 2902 2787 2899 2792C 2896 2797 2869 2805 2839 2810C 2809 2816 2765 2825 2740 2830C 2611 2859 2560 2864 2385 2865C 2281 2865 2175 2862 2150 2857C 1988 2830 1907 2812 1785 2775C 1736 2760 1682 2745 1665 2742C 1649 2740 1633 2734 1630 2730C 1625 2723 1456 2655 1360 2622C 1335 2613 1313 2603 1312 2598C 1307 2588 1231 2550 1214 2550C 1207 2550 1184 2539 1164 2525C 1143 2511 1115 2497 1101 2493C 1087 2490 1054 2474 1029 2458C 1004 2443 976 2430 968 2430C 960 2430 941 2419 926 2405C 911 2391 893 2380 885 2380C 878 2380 870 2376 868 2372C 867 2368 839 2352 807 2336C 774 2320 725 2292 697 2274C 669 2255 642 2240 637 2240C 627 2240 556 2188 552 2177C 550 2173 535 2170 519 2170C 503 2170 490 2166 490 2161C 490 2145 39 1871 13 1870C 3 1870 0 1676 0 935L0 935L0 0L6000 0L12000 0L12000 929C 12000 1808 11999 1859 11983 1859C 11954 1858 11775 1904 11772 1912C 11770 1916 11757 1920 11744 1920C 11715 1920 11587 1962 11582 1973C 11580 1977 11563 1980 11544 1980C 11525 1980 11510 1984 11510 1989C 11510 1994 11498 2001 11484 2004C 11470 2008 11439 2019 11416 2029C 11394 2039 11349 2058 11317 2070C 11286 2082 11257 2096 11254 2101C 11251 2106 11242 2110 11233 2110C 11212 2110 11130 2151 11130 2162C 11130 2166 11117 2170 11101 2170C 11085 2170 11070 2173 11068 2178C 11064 2186 11028 2207 10945 2249C 10912 2266 10878 2284 10870 2289C 10862 2294 10844 2303 10830 2309C 10789 2327 10580 2448 10473 2517C 10444 2535 10418 2550 10415 2550C 10413 2550 10378 2570 10338 2594C 10298 2618 10232 2657 10193 2679C 10153 2702 10120 2725 10120 2730C 10120 2736 10112 2740 10103 2741C 10093 2741 10065 2754 10040 2770C 10015 2786 9975 2810 9950 2823C 9925 2837 9889 2857 9870 2868C 9851 2880 9815 2899 9790 2911C 9765 2923 9743 2935 9740 2939C 9729 2952 9675 2981 9578 3024C 9551 3035 9530 3048 9530 3053C 9530 3057 9526 3059 9522 3056C 9518 3054 9494 3060 9470 3072C 9445 3083 9400 3101 9370 3112C 9340 3123 9311 3138 9305 3144C 9292 3159 9265 3159 9220 3143z" stroke="none" fill="#FEFEFE" fill-rule="nonzero" />
    <path transform="matrix(0.1 0 0 0.1 0 0)"  d="M1803 3093C 1807 3090 1813 3090 1817 3093C 1820 3097 1817 3100 1810 3100C 1803 3100 1800 3097 1803 3093z" stroke="none" fill="#FEFEFE" fill-rule="nonzero" />
    <path transform="matrix(0.1 0 0 0.1 0 0)"  d="M6380 3090C 6380 3085 6385 3080 6391 3080C 6396 3080 6398 3085 6395 3090C 6392 3096 6387 3100 6384 3100C 6382 3100 6380 3096 6380 3090z" stroke="none" fill="#FEFEFE" fill-rule="nonzero" />
    <path transform="matrix(0.1 0 0 0.1 0 0)"  d="M1363 2873C 1367 2870 1373 2870 1377 2873C 1380 2877 1377 2880 1370 2880C 1363 2880 1360 2877 1363 2873z" stroke="none" fill="#FEFEFE" fill-rule="nonzero" />
    <path transform="matrix(0.1 0 0 0.1 0 0)"  d="M7073 2763C 7077 2760 7083 2760 7087 2763C 7090 2767 7087 2770 7080 2770C 7073 2770 7070 2767 7073 2763z" stroke="none" fill="#FEFEFE" fill-rule="nonzero" />
    <path transform="matrix(0.1 0 0 0.1 0 0)"  d="M933 2683C 937 2680 943 2680 947 2683C 950 2687 947 2690 940 2690C 933 2690 930 2687 933 2683z" stroke="none" fill="#FEFEFE" fill-rule="nonzero" />
    <path transform="matrix(0.1 0 0 0.1 0 0)"  d="M7583 2663C 7587 2660 7593 2660 7597 2663C 7600 2667 7597 2670 7590 2670C 7583 2670 7580 2667 7583 2663z" stroke="none" fill="#FEFEFE" fill-rule="nonzero" />
    <path transform="matrix(0.1 0 0 0.1 0 0)"  d="M853 2633C 857 2630 863 2630 867 2633C 870 2637 867 2640 860 2640C 853 2640 850 2637 853 2633z" stroke="none" fill="#FEFEFE" fill-rule="nonzero" />
    <path transform="matrix(0.1 0 0 0.1 0 0)"  d="M723 2593C 727 2590 733 2590 737 2593C 740 2597 737 2600 730 2600C 723 2600 720 2597 723 2593z" stroke="none" fill="#FEFEFE" fill-rule="nonzero" />
</g>
</svg>